<?xml version="1.0" encoding="utf-8"?>
<!-- Generator: Adobe Illustrator 19.2.1, SVG Export Plug-In . SVG Version: 6.00 Build 0)  -->
<svg version="1.1" id="Logotype" xmlns="http://www.w3.org/2000/svg" xmlns:xlink="http://www.w3.org/1999/xlink" x="0px" y="0px"
	 viewBox="0 0 510.5 66.4" style="enable-background:new 0 0 510.5 66.4;" xml:space="preserve">
<g>
	<path d="M49.7,17.2h-0.2l-13.7,48h-9.4l-13.1-48h-0.2v48H0V4.4h21.5l9.8,39.1h0.2L42.1,4.4h20.5v60.8H49.5v-48H49.7z"/>
	<path d="M109.1,46.2H82.4c0,5.4,3.5,10.4,11.2,10.4c4.7,0,9.4-1.7,12.8-3.6l0.3,10.4C102.3,65.1,97,66,92.3,66
		c-15.9,0-23-9.7-23-23.5c0-12.2,7.1-23.2,20.1-23.2c4.1,0,19.7,0,19.7,23.7V46.2z M96.6,38.7c0-5.7-1.5-11.1-7.1-11.1
		c-7,0-7,8.7-7,11.1H96.6z"/>
	<path d="M110.8,19.9h7.8v-9.3L132,6.3v13.6h8.9v9.7H132v20.8c0,4.4,2,5.7,4.6,5.7c1.9,0,3.1-0.3,4.5-1v9.7
		c-1.4,0.5-5.1,1.2-9.6,1.2c-7.1,0-13.3-3.5-13.3-13.4v-23h-7.5v-9.7H110.8z"/>
	<path d="M148.4,29.4c0-4.4-0.1-7.1-0.3-9.5h12.5c0.1,2.7,0.3,5.5,0.3,8.2h0.2c2.8-4.9,4.7-8.9,12.6-8.9h2v12.7
		c-1.5-0.3-2.7-0.5-4.6-0.5c-8,0-9,7-9,13.6v20.3h-13.8L148.4,29.4L148.4,29.4z"/>
	<path d="M198,19.2c13.9,0,21.3,9.7,21.3,23.2c0,13.8-7.4,23.5-21.3,23.5s-21.3-9.7-21.3-23.5C176.6,28.9,184,19.2,198,19.2z
		 M198,56.6c4.8,0,7-5.2,7-14.1s-2.3-13.8-7-13.8s-7,5-7,13.8C190.9,51.3,193.2,56.6,198,56.6z"/>
	<path d="M280.8,16.9c-3.4-1.7-8.2-3.1-12-3.1c-4.6,0-8.1,2.1-8.1,6.6c0,11.1,23.9,5.9,23.9,27.5c0,11.5-9.1,18.5-21.2,18.5
		c-7.4,0-13.8-1.7-16.4-2.5l0.8-11.8c4.3,1.7,8,3.7,13.3,3.7c4.5,0,8.9-2.3,8.9-7.2c0-11.8-23.9-6-23.9-27.7
		c0-1.8,0.7-17.3,21.1-17.3c5.6,0,9.1,1,14.3,2.1L280.8,16.9z"/>
	<path d="M328.9,46.2h-26.7c0,5.4,3.5,10.4,11.2,10.4c4.7,0,9.4-1.7,12.8-3.6l0.3,10.4c-4.4,1.7-9.7,2.6-14.4,2.6
		c-15.9,0-23-9.7-23-23.5c0-12.2,7.1-23.2,20.1-23.2c4.1,0,19.7,0,19.7,23.7V46.2z M316.3,38.7c0-5.7-1.5-11.1-7.1-11.1
		c-7,0-7,8.7-7,11.1H316.3z"/>
	<path d="M335.8,29.4c0-4.4-0.1-7.1-0.3-9.5H348c0.1,2.7,0.3,5.5,0.3,8.2h0.2c2.8-4.9,4.7-8.9,12.6-8.9h2v12.7
		c-1.5-0.3-2.7-0.5-4.6-0.5c-8,0-9,7-9,13.6v20.3h-13.8L335.8,29.4L335.8,29.4z"/>
	<path d="M365,19.9h14.3l8.4,32.3h0.2l8.3-32.3h13.4l-14.3,45.4h-16.2L365,19.9z"/>
	<path d="M413,0h13.8v12.2H413V0z M413,19.9h13.8v45.3H413V19.9z"/>
	<path d="M467.3,64c-4,1-8.1,1.9-12.4,1.9c-17.5,0-21.4-14.6-21.4-22.9c0-13.9,8-23.8,22.5-23.8c4.5,0,7,1.1,11,2.2l-0.7,10.4
		c-2.5-1-5.1-1.9-8-1.9c-10.4,0-10.4,11.5-10.4,13.2c0,9.6,5.9,12.6,11.1,12.6c2.9,0,5.5-1,8-2L467.3,64z"/>
	<path d="M510.5,46.2h-26.7c0,5.4,3.5,10.4,11.2,10.4c4.7,0,9.4-1.7,12.8-3.6l0.3,10.4c-4.4,1.7-9.7,2.6-14.4,2.6
		c-15.9,0-23-9.7-23-23.5c0-12.2,7.1-23.2,20.1-23.2c4.1,0,19.7,0,19.7,23.7L510.5,46.2L510.5,46.2z M498,38.7
		c0-5.7-1.5-11.1-7.1-11.1c-7,0-7,8.7-7,11.1H498z"/>
</g>
</svg>
