<?xml version="1.0" encoding="utf-8"?>
<!-- Generator: Adobe Illustrator 19.2.1, SVG Export Plug-In . SVG Version: 6.00 Build 0)  -->
<svg version="1.1" id="Capa_1" xmlns="http://www.w3.org/2000/svg" xmlns:xlink="http://www.w3.org/1999/xlink" x="0px" y="0px"
	 viewBox="0 0 792 792" style="enable-background:new 0 0 792 792;" xml:space="preserve">
<style type="text/css">
	.st0{fill:#E37D1D;}
</style>
<g>
	<g id="Shape_13_1_">
		<g>
			<path class="st0" d="M499.3,70.7H292.7C198,70.7,121,146.6,121,239.8v374.7h550V239.8C671,146.6,594,70.7,499.3,70.7z
				 M643.9,587.8H148.1v-348c0-78.5,64.9-142.4,144.6-142.4h206.6c79.7,0,144.6,63.9,144.6,142.4L643.9,587.8L643.9,587.8z M524.2,0
				H267v26.7h257.3L524.2,0L524.2,0z M226.2,428.3c-28.3,0-51.3,22.7-51.3,50.6s23,50.6,51.3,50.6c28.3,0,51.3-22.7,51.3-50.6
				C277.6,451,254.5,428.3,226.2,428.3z M226.2,502.8c-13.4,0-24.3-10.7-24.3-23.9c0-13.2,10.9-23.9,24.3-23.9s24.3,10.7,24.3,23.9
				S239.6,502.8,226.2,502.8z M564.7,428.3c-28.3,0-51.3,22.7-51.3,50.6s23,50.6,51.3,50.6c28.3,0,51.3-22.7,51.3-50.6
				S593,428.3,564.7,428.3z M564.7,502.8c-13.4,0-24.3-10.7-24.3-23.9c0-13.2,10.9-23.9,24.3-23.9c13.4,0,24.3,10.7,24.3,23.9
				C589,492.1,578.1,502.8,564.7,502.8z M150.2,778.4l23.3,13.6l88.2-146.8l-23.3-13.6L150.2,778.4z M529.3,645.2L617.5,792
				l23.3-13.6l-88.2-146.8L529.3,645.2z M598.6,244.5c0-47.7-39.4-86.4-87.8-86.4H280.2c-48.4,0-87.8,38.8-87.8,86.4V383h406.2
				L598.6,244.5L598.6,244.5z M571.5,356.4h-352V244.6c0-33,27.2-59.8,60.7-59.8h230.6c33.5,0,60.7,26.8,60.7,59.8L571.5,356.4
				L571.5,356.4z"/>
		</g>
	</g>
</g>
</svg>
