<?xml version="1.0" encoding="utf-8"?>
<!-- Generator: Adobe Illustrator 19.2.1, SVG Export Plug-In . SVG Version: 6.00 Build 0)  -->
<svg version="1.1" id="Capa_1" xmlns="http://www.w3.org/2000/svg" xmlns:xlink="http://www.w3.org/1999/xlink" x="0px" y="0px"
	 viewBox="0 0 64.8 64.8" style="enable-background:new 0 0 64.8 64.8;" xml:space="preserve">
<style type="text/css">
	.st0{fill:#E37D1D;}
</style>
<g>
	<path class="st0" d="M57.4,17l-0.7,0.7c-1.3,1.3-2.3,1.7-4.3,1.7c-4.1,0-7-2.9-7-7c0-2,0.4-3,1.7-4.3l0.7-0.7L40.4,0L0,40.4
		l7.4,7.4l0.7-0.7c1.3-1.3,2.3-1.7,4.3-1.7c4.1,0,7,2.9,7,7c0,2-0.4,3-1.7,4.3L17,57.4l7.4,7.4l40.4-40.4L57.4,17z M19.8,57.4
		c1.2-1.4,1.6-2.8,1.6-5c0-5.1-3.9-9-9-9c-2.2,0-3.6,0.4-5,1.6l-4.6-4.6l23.6-23.6l3.3,3.3l1.4-1.4l-3.3-3.3L40.4,2.8L45,7.4
		c-1.2,1.4-1.6,2.8-1.6,5c0,5.1,3.9,9,9,9c2.2,0,3.5-0.4,5-1.6l4.6,4.6L49.4,37l-3.3-3.3l-1.4,1.4l3.3,3.3L24.4,62L19.8,57.4z"/>
	<path class="st0" d="M35.7,26.1l-4-4l1.4-1.4l4,4L35.7,26.1z"/>
	<path class="st0" d="M42.7,33.1l-4-4l1.4-1.4l4,4L42.7,33.1z"/>
</g>
</svg>
